HIERARCHY
ROOT Hips
{
	OFFSET 0.00000 0.00000 0.00000
	CHANNELS 6 Xposition Yposition Zposition Zrotation Yrotation Xrotation 
	JOINT LHipJoint
	{
		OFFSET 0 0 0
		CHANNELS 3 Zrotation Yrotation Xrotation
		JOINT LeftUpLeg
		{
			OFFSET 1.56857 -1.73443 1.15205
			CHANNELS 3 Zrotation Yrotation Xrotation
			JOINT LeftLeg
			{
				OFFSET 2.39362 -6.57643 0.00000
				CHANNELS 3 Zrotation Yrotation Xrotation
				JOINT LeftFoot
				{
					OFFSET 2.50952 -6.89485 0.00000
					CHANNELS 3 Zrotation Yrotation Xrotation
					JOINT LeftToeBase
					{
						OFFSET 0.17171 -0.47178 1.88682
						CHANNELS 3 Zrotation Yrotation Xrotation
						End Site
						{
							OFFSET 0.00000 -0.00000 0.98146
						}
					}
				}
			}
		}
	}
	JOINT RHipJoint
	{
		OFFSET 0 0 0
		CHANNELS 3 Zrotation Yrotation Xrotation
		JOINT RightUpLeg
		{
			OFFSET -1.28153 -1.73443 1.15205
			CHANNELS 3 Zrotation Yrotation Xrotation
			JOINT RightLeg
			{
				OFFSET -2.26861 -6.23296 0.00000
				CHANNELS 3 Zrotation Yrotation Xrotation
				JOINT RightFoot
				{
					OFFSET -2.54143 -6.98254 0.00000
					CHANNELS 3 Zrotation Yrotation Xrotation
					JOINT RightToeBase
					{
						OFFSET -0.23309 -0.64041 1.93119
						CHANNELS 3 Zrotation Yrotation Xrotation
						End Site
						{
							OFFSET -0.00000 -0.00000 1.02013
						}
					}
				}
			}
		}
	}
	JOINT LowerBack
	{
		OFFSET 0 0 0
		CHANNELS 3 Zrotation Yrotation Xrotation
		JOINT Spine
		{
			OFFSET -0.07096 2.10460 -0.27878
			CHANNELS 3 Zrotation Yrotation Xrotation
			JOINT Spine1
			{
				OFFSET -0.00826 2.13662 -0.08279
				CHANNELS 3 Zrotation Yrotation Xrotation
				JOINT Neck
				{
					OFFSET 0 0 0
					CHANNELS 3 Zrotation Yrotation Xrotation
					JOINT Neck1
					{
						OFFSET 0.03239 1.77799 0.24435
						CHANNELS 3 Zrotation Yrotation Xrotation
						JOINT Head
						{
							OFFSET 0.01026 1.74194 -0.49664
							CHANNELS 3 Zrotation Yrotation Xrotation
							End Site
							{
								OFFSET 0.00170 1.83057 -0.19653
							}
						}
					}
				}
				JOINT LeftShoulder
				{
					OFFSET 0 0 0
					CHANNELS 3 Zrotation Yrotation Xrotation
					JOINT LeftArm
					{
						OFFSET 3.19178 1.35907 -0.31412
						CHANNELS 3 Zrotation Yrotation Xrotation
						JOINT LeftForeArm
						{
							OFFSET 4.85247 -0.00000 -0.00000
							CHANNELS 3 Zrotation Yrotation Xrotation
							JOINT LeftHand
							{
								OFFSET 3.55584 -0.00000 0.00000
								CHANNELS 3 Zrotation Yrotation Xrotation
								JOINT LeftFingerBase
								{
									OFFSET 0 0 0
									CHANNELS 3 Zrotation Yrotation Xrotation
									JOINT LeftHandIndex1
									{
										OFFSET 0.69320 -0.00000 0.00000
										CHANNELS 3 Zrotation Yrotation Xrotation
										End Site
										{
											OFFSET 0.55888 -0.00000 0.00000
										}
									}
								}
								JOINT LThumb
								{
									OFFSET 0 0 0
									CHANNELS 3 Zrotation Yrotation Xrotation
									End Site
									{
										OFFSET 0.56741 -0.00000 0.56741
									}
								}
							}
						}
					}
				}
				JOINT RightShoulder
				{
					OFFSET 0 0 0
					CHANNELS 3 Zrotation Yrotation Xrotation
					JOINT RightArm
					{
						OFFSET -3.28999 1.24191 -0.26899
						CHANNELS 3 Zrotation Yrotation Xrotation
						JOINT RightForeArm
						{
							OFFSET -4.64462 -0.00000 0.00000
							CHANNELS 3 Zrotation Yrotation Xrotation
							JOINT RightHand
							{
								OFFSET -3.40703 -0.00000 0.00000
								CHANNELS 3 Zrotation Yrotation Xrotation
								JOINT RightFingerBase
								{
									OFFSET 0 0 0
									CHANNELS 3 Zrotation Yrotation Xrotation
									JOINT RightHandIndex1
									{
										OFFSET -0.61958 -0.00000 0.00000
										CHANNELS 3 Zrotation Yrotation Xrotation
										End Site
										{
											OFFSET -0.49952 -0.00000 0.00000
										}
									}
								}
								JOINT RThumb
								{
									OFFSET 0 0 0
									CHANNELS 3 Zrotation Yrotation Xrotation
									End Site
									{
										OFFSET -0.50715 -0.00000 0.50715
									}
								}
							}
						}
					}
				}
			}
		}
	}
}
MOTION
Frames: 8
Frame Time: .0083333
47.7017 16.8572 2.8662 371.0010 -7.2849 352.2390 0.0000 0.0000 0.0000 -31.9758 10.7701 3.9956 0.0576 1.5481 4.2583 0.1647 -0.3502 -7.5466 0.3256 3.6673 10.1425 0.0000 0.0000 0.0000 1.7557 -3.9175 4.6722 -9.0156 -16.8178 56.1441 0.0598 -4.4320 -0.6272 -1.7170 -8.2500 23.4760 -12.4678 2.9177 4.5367 -4.2247 3.1274 0.3931 2.3152 1.6565 -2.5727 3.7202 1.0105 -21.6036 -0.6245 0.3042 24.1463 -0.8037 0.4048 11.4653 -0.0000 0.0000 0.0000 -81.1211 0.7302 37.1326 18.7146 -29.0625 -4.8914 -0.0000 -0.0000 4.3121 17.9041 -22.3111 -6.9923 -7.1250 0.0000 -0.0000 -6.8876 6.7925 6.0697 -0.0000 0.0000 0.0000 88.4153 -13.6621 23.6471 -14.5561 23.5241 -3.0466 0.0000 0.0000 10.4756 -6.8406 -31.9590 3.6332 7.1250 -0.0000 -0.0000 28.7286 -59.7517 -10.8864
47.7091 16.8579 2.9593 371.2490 -7.0839 352.2750 0.0000 0.0000 0.0000 -32.3077 11.0377 4.2190 0.0565 1.5341 4.2197 0.1710 -0.7016 -7.5922 0.3305 3.6947 10.2193 0.0000 0.0000 0.0000 1.6347 -3.7091 3.1365 -9.3805 -17.0464 57.3969 0.0541 -4.1387 -1.1319 -1.2982 -7.2187 20.3651 -12.9070 2.7086 4.5432 -4.1369 2.8304 0.4164 2.6703 1.5117 -2.5379 3.9391 1.2459 -21.5404 -0.9925 0.6693 23.9706 -0.9170 0.5393 11.3973 -0.0000 0.0000 0.0000 -81.1475 0.1261 37.4491 18.9959 -29.4136 -5.0288 -0.0000 -0.0000 4.0927 18.0060 -22.2740 -7.0235 -7.1250 0.0000 -0.0000 -6.8209 6.8160 6.0070 -0.0000 0.0000 0.0000 88.3184 -13.9498 23.2932 -14.5210 23.4747 -3.0326 0.0000 0.0000 10.1238 -7.6280 -31.8682 4.0446 7.1250 -0.0000 -0.0000 27.8515 -59.8548 -10.5906
47.7098 16.8693 3.0617 371.5200 -7.0059 352.0240 0.0000 0.0000 0.0000 -32.5793 11.3248 4.9051 0.0514 1.4626 4.0225 0.1856 -0.8308 -7.8858 0.3149 3.6076 9.9752 0.0000 0.0000 0.0000 1.2948 -3.6796 2.1274 -9.5531 -17.1507 57.9839 0.0453 -3.7710 -1.4021 -0.9551 -6.2234 17.4340 -13.3387 2.5917 4.6346 -4.1094 2.6518 0.5560 2.9479 1.4166 -2.4364 4.1200 1.4719 -21.6925 -1.0695 0.9401 24.0842 -0.9324 0.6691 11.4795 -0.0000 0.0000 0.0000 -81.0019 -0.4906 37.9238 19.2856 -29.7720 -5.1719 -0.0000 -0.0000 3.7820 18.0658 -22.2682 -7.0464 -7.1250 0.0000 -0.0000 -6.7830 6.8133 5.9735 -0.0000 0.0000 0.0000 88.4044 -14.1166 22.8881 -14.4735 23.4075 -3.0136 0.0000 0.0000 10.2486 -8.2833 -32.9475 4.5272 7.1250 -0.0000 -0.0000 28.1826 -60.9492 -11.4704
47.7211 16.8761 3.1575 371.7010 -6.9342 351.9090 0.0000 0.0000 0.0000 -32.8676 11.4040 5.4619 0.0470 1.3997 3.8493 0.2006 -0.8417 -8.2027 0.2791 3.3979 9.3885 0.0000 0.0000 0.0000 1.1514 -3.4120 0.9918 -9.7195 -17.2491 58.5468 0.0372 -3.5008 -2.0802 -1.0884 -6.6304 18.6248 -13.4946 2.4333 4.6926 -4.1295 2.4325 0.6459 3.0302 1.3010 -2.3460 4.4660 1.6796 -21.7114 -1.3642 1.1954 23.9947 -1.0575 0.7765 11.4615 0.0000 -0.0000 0.0000 -80.7385 -1.0658 38.5025 19.6182 -30.1796 -5.3381 -0.0000 -0.0000 3.2543 18.0624 -22.2605 -7.0427 -7.1250 0.0000 -0.0000 -6.7846 6.8218 5.9738 0.0000 -0.0000 0.0000 88.5496 -14.2953 22.2212 -14.4914 23.4328 -3.0208 0.0000 0.0000 10.1301 -8.2656 -33.5119 4.5856 7.1250 -0.0000 -0.0000 28.7502 -61.4331 -12.0558
47.7358 16.8868 3.2587 371.8050 -6.9567 351.7700 0.0000 0.0000 0.0000 -33.1646 11.1364 6.2608 0.0391 1.2764 3.5095 0.2172 -0.4225 -8.6627 0.2580 3.2677 9.0251 0.0000 0.0000 0.0000 1.1704 -2.9462 -0.0643 -9.8574 -17.3289 59.0107 0.0231 -3.0746 -2.6952 -1.0089 -6.3912 17.9238 -13.5347 2.2776 4.7145 -4.1114 2.2293 0.7235 3.0893 1.1925 -2.2468 4.7053 1.8281 -21.6000 -1.5430 1.3777 23.9322 -1.1342 0.8569 11.4261 -0.0000 0.0000 0.0000 -80.5239 -1.5875 38.8862 19.9065 -30.5295 -5.4838 -0.0000 -0.0000 2.8263 18.1925 -22.3204 -7.1144 -7.1250 0.0000 -0.0000 -6.7070 6.7417 5.9149 -0.0000 0.0000 0.0000 88.5462 -14.6404 22.0267 -14.6128 23.6040 -3.0692 0.0000 0.0000 9.5616 -9.0851 -33.9711 5.1059 7.1250 -0.0000 -0.0000 28.3657 -62.0330 -12.2836
47.7340 16.8852 3.3425 371.8180 -6.7744 351.8630 0.0000 0.0000 0.0000 -33.1300 11.3641 6.4151 0.0405 1.2988 3.5713 0.2261 -0.8899 -8.7112 0.2998 3.5204 9.7312 0.0000 0.0000 0.0000 0.8749 -3.4429 -1.7446 -9.9914 -17.4050 59.4596 -0.0012 -1.9636 -2.9038 -0.7616 -5.5731 15.5507 -13.8246 2.0384 4.7609 -3.9681 1.8901 0.7046 3.4224 1.0289 -2.2547 4.6847 2.0263 -21.6544 -1.5903 1.6768 24.1251 -1.1008 0.9851 11.5210 0.0000 0.0000 0.0000 -80.5411 -2.1064 38.9686 20.1380 -30.8082 -5.6018 -0.0000 -0.0000 2.6796 18.2589 -22.5066 -7.1978 -7.1250 0.0000 -0.0000 -6.6785 6.5410 5.9156 0.0000 0.0000 0.0000 88.4871 -14.9183 21.6370 -14.6985 23.7244 -3.1036 0.0000 0.0000 9.3653 -10.0457 -34.1054 5.6727 7.1250 -0.0000 -0.0000 27.5017 -62.3921 -12.1108
47.7386 16.8892 3.4362 371.8900 -6.6211 351.7980 0.0000 0.0000 0.0000 -33.2561 11.4250 6.8669 0.0399 1.2885 3.5430 0.2420 -0.9939 -8.9950 0.3375 3.7334 10.3279 0.0000 0.0000 0.0000 0.8122 -3.4167 -2.9570 -10.0623 -17.4447 59.6963 -0.0255 -1.1715 -3.6886 -0.6874 -5.3004 14.7674 -14.1092 1.8230 4.8499 -3.8022 1.5805 0.7319 3.7741 0.8767 -2.2375 4.7084 2.1741 -21.6922 -1.8008 1.9371 24.2698 -1.1411 1.0774 11.5951 0.0000 0.0000 0.0000 -80.6183 -2.5443 39.1862 20.4223 -31.1478 -5.7482 -0.0000 -0.0000 2.3759 18.1049 -22.6975 -7.1903 -7.1250 0.0000 -0.0000 -6.7887 6.3677 6.0374 0.0000 0.0000 0.0000 88.2678 -15.2344 21.5130 -14.7993 23.8658 -3.1443 0.0000 0.0000 9.0360 -10.2167 -34.0377 5.7606 7.1250 -0.0000 -0.0000 27.2535 -62.3765 -11.9826
47.7399 16.8948 3.5332 371.8580 -6.4755 351.7010 0.0000 0.0000 0.0000 -33.2706 11.3519 7.4817 0.0377 1.2531 3.4455 0.2658 -0.9212 -9.4562 0.3520 3.8118 10.5477 0.0000 0.0000 0.0000 1.0428 -3.1646 -3.9558 -10.0922 -17.4614 59.7960 -0.0549 -0.6898 -4.7351 -0.6546 -5.1752 14.4088 -14.3246 1.5666 4.9292 -3.5716 1.2255 0.7756 4.1614 0.6991 -2.1844 4.7220 2.3507 -21.5155 -2.0235 2.2548 24.1653 -1.1749 1.1920 11.5357 0.0000 0.0000 0.0000 -80.7322 -2.9334 39.2234 20.6871 -31.4613 -5.8858 -0.0000 -0.0000 2.0824 17.8534 -22.8598 -7.1321 -7.1250 0.0000 -0.0000 -6.9575 6.2378 6.2074 0.0000 0.0000 0.0000 87.7254 -15.6933 22.5422 -15.0500 24.2157 -3.2464 0.0000 0.0000 8.0044 -10.0765 -33.5358 5.6070 7.1250 -0.0000 -0.0000 26.8982 -61.9022 -11.5123
